# xmcd
#
# Track frame offsets:
#	150
#	17799
#	32405
#	53437
#	77655
#	97710
#	117492
#	139697
#	162946
#	181881
#	214571
#	233056
#	249678
#
# Disc length: 3682 seconds
# Revision: 0
# Processed by: cddbd v1.5.2PL0 Copyright (c) Steve Scherf et al.
# Submitted via: dBpowerAMP V12.0
#
DISCID=980e600d
DTITLE=Grand Marquis - Blues and Trouble
DYEAR=2013
DGENRE=Blues
TTITLE0=Bed of Nails
TTITLE1=Every Days the Same
TTITLE2=Reputation
TTITLE3=Empire of Dirt
TTITLE4=Blues and Trouble
TTITLE5=The Jungle
TTITLE6=You're Still My Baby
TTITLE7=Ironclad Alibi
TTITLE8=Two By Two
TTITLE9=Easy to Be the Devil
TTITLE10=Whole Lotta Shakin' Goin' On
TTITLE11=Mr Williams
TTITLE12=Half the Money
EXTD=
EXTT0=
EXTT1=
EXTT2=
EXTT3=
EXTT4=
EXTT5=
EXTT6=
EXTT7=
EXTT8=
EXTT9=
EXTT10=
EXTT11=
EXTT12=
PLAYORDER=
